<svg width="200" height="200" xmlns="http://www.w3.org/2000/svg">
  <rect width="200" height="200" fill="white"/>
  <rect x="10" y="10" width="50" height="50" fill="black"/>
  <rect x="70" y="10" width="10" height="10" fill="black"/>
  <rect x="90" y="10" width="10" height="10" fill="black"/>
  <rect x="110" y="10" width="10" height="10" fill="black"/>
  <rect x="130" y="10" width="50" height="50" fill="black"/>
  <rect x="10" y="70" width="10" height="10" fill="black"/>
  <rect x="30" y="70" width="10" height="10" fill="black"/>
  <rect x="50" y="70" width="10" height="10" fill="black"/>
  <rect x="70" y="70" width="10" height="10" fill="black"/>
  <rect x="90" y="70" width="10" height="10" fill="black"/>
  <rect x="110" y="70" width="10" height="10" fill="black"/>
  <rect x="130" y="70" width="10" height="10" fill="black"/>
  <rect x="150" y="70" width="10" height="10" fill="black"/>
  <rect x="170" y="70" width="10" height="10" fill="black"/>
  <rect x="10" y="90" width="10" height="10" fill="black"/>
  <rect x="30" y="90" width="10" height="10" fill="black"/>
  <rect x="50" y="90" width="10" height="10" fill="black"/>
  <rect x="70" y="90" width="10" height="10" fill="black"/>
  <rect x="90" y="90" width="10" height="10" fill="black"/>
  <rect x="110" y="90" width="10" height="10" fill="black"/>
  <rect x="130" y="90" width="10" height="10" fill="black"/>
  <rect x="150" y="90" width="10" height="10" fill="black"/>
  <rect x="170" y="90" width="10" height="10" fill="black"/>
  <rect x="10" y="110" width="10" height="10" fill="black"/>
  <rect x="30" y="110" width="10" height="10" fill="black"/>
  <rect x="50" y="110" width="10" height="10" fill="black"/>
  <rect x="70" y="110" width="10" height="10" fill="black"/>
  <rect x="90" y="110" width="10" height="10" fill="black"/>
  <rect x="110" y="110" width="10" height="10" fill="black"/>
  <rect x="130" y="110" width="10" height="10" fill="black"/>
  <rect x="150" y="110" width="10" height="10" fill="black"/>
  <rect x="170" y="110" width="10" height="10" fill="black"/>
  <rect x="10" y="130" width="50" height="50" fill="black"/>
  <rect x="70" y="130" width="10" height="10" fill="black"/>
  <rect x="90" y="130" width="10" height="10" fill="black"/>
  <rect x="110" y="130" width="10" height="10" fill="black"/>
  <rect x="130" y="130" width="50" height="50" fill="black"/>
  <rect x="70" y="150" width="10" height="10" fill="black"/>
  <rect x="90" y="150" width="10" height="10" fill="black"/>
  <rect x="110" y="150" width="10" height="10" fill="black"/>
  <rect x="70" y="170" width="10" height="10" fill="black"/>
  <rect x="90" y="170" width="10" height="10" fill="black"/>
  <rect x="110" y="170" width="10" height="10" fill="black"/>
</svg>

